<mxfile host="app.diagrams.net" agent="Mozilla/5.0 (Macintosh; Intel Mac OS X 10_15_7) AppleWebKit/605.1.15 (KHTML, like Gecko) Version/18.3.1 Safari/605.1.15" version="26.2.12">
  <diagram name="Halaman-1" id="pIA_jFUx949KRH7alEfZ">
    <mxGraphModel dx="2576" dy="1109" grid="1" gridSize="10" guides="1" tooltips="1" connect="1" arrows="1" fold="1" page="1" pageScale="1" pageWidth="827" pageHeight="1169" math="0" shadow="0">
      <root>
        <mxCell id="0" />
        <mxCell id="1" parent="0" />
        <mxCell id="zmf_kZrxa9GDJHeQNLPr-8" style="edgeStyle=orthogonalEdgeStyle;rounded=0;orthogonalLoop=1;jettySize=auto;html=1;exitX=0.5;exitY=1;exitDx=0;exitDy=0;" parent="1" source="zmf_kZrxa9GDJHeQNLPr-1" edge="1">
          <mxGeometry relative="1" as="geometry">
            <mxPoint x="380" y="190" as="targetPoint" />
          </mxGeometry>
        </mxCell>
        <mxCell id="zmf_kZrxa9GDJHeQNLPr-1" value="Mulai" style="rounded=1;whiteSpace=wrap;html=1;" parent="1" vertex="1">
          <mxGeometry x="330" y="110" width="100" height="40" as="geometry" />
        </mxCell>
        <mxCell id="zmf_kZrxa9GDJHeQNLPr-7" style="edgeStyle=orthogonalEdgeStyle;rounded=0;orthogonalLoop=1;jettySize=auto;html=1;exitX=0.5;exitY=1;exitDx=0;exitDy=0;" parent="1" source="zmf_kZrxa9GDJHeQNLPr-3" edge="1">
          <mxGeometry relative="1" as="geometry">
            <mxPoint x="380" y="340" as="targetPoint" />
          </mxGeometry>
        </mxCell>
        <mxCell id="zmf_kZrxa9GDJHeQNLPr-3" value="&lt;span style=&quot;text-align: left;&quot;&gt;Menu :&lt;/span&gt;&lt;div style=&quot;text-align: left;&quot;&gt;1.Sign Up&lt;/div&gt;&lt;div style=&quot;text-align: left;&quot;&gt;2. Sign in&lt;/div&gt;&lt;div style=&quot;text-align: left;&quot;&gt;3. Produk Katalog&lt;/div&gt;&lt;div style=&quot;text-align: left;&quot;&gt;4. Exit&lt;/div&gt;" style="rounded=0;whiteSpace=wrap;html=1;" parent="1" vertex="1">
          <mxGeometry x="297.5" y="193" width="165" height="97" as="geometry" />
        </mxCell>
        <mxCell id="zmf_kZrxa9GDJHeQNLPr-17" style="edgeStyle=orthogonalEdgeStyle;rounded=0;orthogonalLoop=1;jettySize=auto;html=1;exitX=0;exitY=0.25;exitDx=0;exitDy=0;entryX=0.5;entryY=0;entryDx=0;entryDy=0;" parent="1" source="zmf_kZrxa9GDJHeQNLPr-4" target="zmf_kZrxa9GDJHeQNLPr-10" edge="1">
          <mxGeometry relative="1" as="geometry" />
        </mxCell>
        <mxCell id="zmf_kZrxa9GDJHeQNLPr-125" value="&amp;nbsp;1. Sign Up&amp;nbsp;" style="edgeLabel;html=1;align=center;verticalAlign=middle;resizable=0;points=[];" parent="zmf_kZrxa9GDJHeQNLPr-17" vertex="1" connectable="0">
          <mxGeometry x="-0.1069" y="2" relative="1" as="geometry">
            <mxPoint as="offset" />
          </mxGeometry>
        </mxCell>
        <mxCell id="zmf_kZrxa9GDJHeQNLPr-51" style="edgeStyle=orthogonalEdgeStyle;rounded=0;orthogonalLoop=1;jettySize=auto;html=1;exitX=0.5;exitY=1;exitDx=0;exitDy=0;" parent="1" source="zmf_kZrxa9GDJHeQNLPr-4" target="zmf_kZrxa9GDJHeQNLPr-50" edge="1">
          <mxGeometry relative="1" as="geometry" />
        </mxCell>
        <mxCell id="zmf_kZrxa9GDJHeQNLPr-121" value="&amp;nbsp;2. Sign In&amp;nbsp;" style="edgeLabel;html=1;align=center;verticalAlign=middle;resizable=0;points=[];rotation=0;" parent="zmf_kZrxa9GDJHeQNLPr-51" vertex="1" connectable="0">
          <mxGeometry x="0.3566" y="2" relative="1" as="geometry">
            <mxPoint as="offset" />
          </mxGeometry>
        </mxCell>
        <mxCell id="zmf_kZrxa9GDJHeQNLPr-130" style="edgeStyle=orthogonalEdgeStyle;rounded=0;orthogonalLoop=1;jettySize=auto;html=1;exitX=1;exitY=0.5;exitDx=0;exitDy=0;entryX=0;entryY=0.5;entryDx=0;entryDy=0;" parent="1" source="zmf_kZrxa9GDJHeQNLPr-4" target="zmf_kZrxa9GDJHeQNLPr-129" edge="1">
          <mxGeometry relative="1" as="geometry" />
        </mxCell>
        <mxCell id="ye_q-mggJqqSbo6vWUP1-4" value="&amp;nbsp;3. Produk Katalog&amp;nbsp;" style="edgeLabel;html=1;align=center;verticalAlign=middle;resizable=0;points=[];" vertex="1" connectable="0" parent="zmf_kZrxa9GDJHeQNLPr-130">
          <mxGeometry x="0.0485" relative="1" as="geometry">
            <mxPoint x="37" as="offset" />
          </mxGeometry>
        </mxCell>
        <mxCell id="zmf_kZrxa9GDJHeQNLPr-4" value="Pilihan :" style="shape=parallelogram;perimeter=parallelogramPerimeter;whiteSpace=wrap;html=1;fixedSize=1;" parent="1" vertex="1">
          <mxGeometry x="325" y="320" width="110" height="40" as="geometry" />
        </mxCell>
        <mxCell id="zmf_kZrxa9GDJHeQNLPr-21" style="edgeStyle=orthogonalEdgeStyle;rounded=0;orthogonalLoop=1;jettySize=auto;html=1;exitX=0;exitY=0.5;exitDx=0;exitDy=0;entryX=0.5;entryY=0;entryDx=0;entryDy=0;" parent="1" source="zmf_kZrxa9GDJHeQNLPr-10" target="zmf_kZrxa9GDJHeQNLPr-19" edge="1">
          <mxGeometry relative="1" as="geometry">
            <Array as="points">
              <mxPoint x="-220" y="440" />
            </Array>
          </mxGeometry>
        </mxCell>
        <mxCell id="zmf_kZrxa9GDJHeQNLPr-30" style="edgeStyle=orthogonalEdgeStyle;rounded=0;orthogonalLoop=1;jettySize=auto;html=1;exitX=1;exitY=0.5;exitDx=0;exitDy=0;entryX=0.5;entryY=0;entryDx=0;entryDy=0;" parent="1" source="zmf_kZrxa9GDJHeQNLPr-10" target="zmf_kZrxa9GDJHeQNLPr-20" edge="1">
          <mxGeometry relative="1" as="geometry">
            <Array as="points">
              <mxPoint x="30" y="440" />
            </Array>
          </mxGeometry>
        </mxCell>
        <mxCell id="zmf_kZrxa9GDJHeQNLPr-10" value="1. User&lt;div&gt;2. Admin&lt;/div&gt;" style="shape=parallelogram;perimeter=parallelogramPerimeter;whiteSpace=wrap;html=1;fixedSize=1;" parent="1" vertex="1">
          <mxGeometry x="-150" y="410" width="120" height="60" as="geometry" />
        </mxCell>
        <mxCell id="zmf_kZrxa9GDJHeQNLPr-34" style="edgeStyle=orthogonalEdgeStyle;rounded=0;orthogonalLoop=1;jettySize=auto;html=1;exitX=0.5;exitY=1;exitDx=0;exitDy=0;" parent="1" source="zmf_kZrxa9GDJHeQNLPr-19" target="zmf_kZrxa9GDJHeQNLPr-33" edge="1">
          <mxGeometry relative="1" as="geometry" />
        </mxCell>
        <mxCell id="zmf_kZrxa9GDJHeQNLPr-19" value="&lt;div&gt;&lt;br&gt;&lt;/div&gt;Input Nama:&lt;div&gt;Input Username :&lt;/div&gt;&lt;div&gt;Input Password :&lt;/div&gt;&lt;div&gt;&lt;br&gt;&lt;/div&gt;" style="shape=parallelogram;perimeter=parallelogramPerimeter;whiteSpace=wrap;html=1;fixedSize=1;" parent="1" vertex="1">
          <mxGeometry x="-310" y="498" width="180" height="60" as="geometry" />
        </mxCell>
        <mxCell id="zmf_kZrxa9GDJHeQNLPr-36" style="edgeStyle=orthogonalEdgeStyle;rounded=0;orthogonalLoop=1;jettySize=auto;html=1;exitX=0.5;exitY=1;exitDx=0;exitDy=0;entryX=0.5;entryY=0;entryDx=0;entryDy=0;" parent="1" source="zmf_kZrxa9GDJHeQNLPr-20" target="zmf_kZrxa9GDJHeQNLPr-33" edge="1">
          <mxGeometry relative="1" as="geometry" />
        </mxCell>
        <mxCell id="zmf_kZrxa9GDJHeQNLPr-20" value="&lt;div&gt;Input Nama:&lt;br&gt;&lt;/div&gt;&lt;div&gt;Input Username :&lt;/div&gt;&lt;div&gt;Input Password :&lt;/div&gt;" style="shape=parallelogram;perimeter=parallelogramPerimeter;whiteSpace=wrap;html=1;fixedSize=1;" parent="1" vertex="1">
          <mxGeometry x="-60" y="498" width="180" height="60" as="geometry" />
        </mxCell>
        <mxCell id="zmf_kZrxa9GDJHeQNLPr-31" value="User" style="text;html=1;align=center;verticalAlign=middle;resizable=0;points=[];autosize=1;strokeColor=none;fillColor=none;" parent="1" vertex="1">
          <mxGeometry x="-200" y="410" width="50" height="30" as="geometry" />
        </mxCell>
        <mxCell id="zmf_kZrxa9GDJHeQNLPr-32" value="Admin" style="text;html=1;align=center;verticalAlign=middle;resizable=0;points=[];autosize=1;strokeColor=none;fillColor=none;" parent="1" vertex="1">
          <mxGeometry x="-30" y="410" width="60" height="30" as="geometry" />
        </mxCell>
        <mxCell id="zmf_kZrxa9GDJHeQNLPr-40" style="edgeStyle=orthogonalEdgeStyle;rounded=0;orthogonalLoop=1;jettySize=auto;html=1;exitX=0;exitY=0.5;exitDx=0;exitDy=0;entryX=0;entryY=0.5;entryDx=0;entryDy=0;" parent="1" source="zmf_kZrxa9GDJHeQNLPr-33" target="zmf_kZrxa9GDJHeQNLPr-3" edge="1">
          <mxGeometry relative="1" as="geometry">
            <Array as="points">
              <mxPoint x="-140" y="710" />
              <mxPoint x="-340" y="710" />
              <mxPoint x="-340" y="242" />
            </Array>
          </mxGeometry>
        </mxCell>
        <mxCell id="zmf_kZrxa9GDJHeQNLPr-33" value="Ya / Tidak" style="rhombus;whiteSpace=wrap;html=1;" parent="1" vertex="1">
          <mxGeometry x="-140" y="668" width="80" height="80" as="geometry" />
        </mxCell>
        <mxCell id="zmf_kZrxa9GDJHeQNLPr-39" style="edgeStyle=orthogonalEdgeStyle;rounded=0;orthogonalLoop=1;jettySize=auto;html=1;exitX=1;exitY=0.5;exitDx=0;exitDy=0;entryX=0.827;entryY=0.004;entryDx=0;entryDy=0;entryPerimeter=0;" parent="1" source="zmf_kZrxa9GDJHeQNLPr-33" target="zmf_kZrxa9GDJHeQNLPr-10" edge="1">
          <mxGeometry relative="1" as="geometry">
            <Array as="points">
              <mxPoint x="150" y="708" />
              <mxPoint x="150" y="390" />
              <mxPoint x="-51" y="390" />
            </Array>
          </mxGeometry>
        </mxCell>
        <mxCell id="zmf_kZrxa9GDJHeQNLPr-41" value="Ingin Mendaftar Lagi ?" style="text;html=1;align=center;verticalAlign=middle;resizable=0;points=[];autosize=1;strokeColor=none;fillColor=none;" parent="1" vertex="1">
          <mxGeometry x="-168" y="585" width="140" height="30" as="geometry" />
        </mxCell>
        <mxCell id="zmf_kZrxa9GDJHeQNLPr-42" value="Ya" style="text;html=1;align=center;verticalAlign=middle;resizable=0;points=[];autosize=1;strokeColor=none;fillColor=none;" parent="1" vertex="1">
          <mxGeometry x="10" y="680" width="40" height="30" as="geometry" />
        </mxCell>
        <mxCell id="zmf_kZrxa9GDJHeQNLPr-43" value="Tidak" style="text;html=1;align=center;verticalAlign=middle;resizable=0;points=[];autosize=1;strokeColor=none;fillColor=none;" parent="1" vertex="1">
          <mxGeometry x="-260" y="681" width="50" height="30" as="geometry" />
        </mxCell>
        <mxCell id="zmf_kZrxa9GDJHeQNLPr-54" style="edgeStyle=orthogonalEdgeStyle;rounded=0;orthogonalLoop=1;jettySize=auto;html=1;exitX=0;exitY=0.5;exitDx=0;exitDy=0;entryX=0.5;entryY=0;entryDx=0;entryDy=0;" parent="1" source="zmf_kZrxa9GDJHeQNLPr-50" target="zmf_kZrxa9GDJHeQNLPr-53" edge="1">
          <mxGeometry relative="1" as="geometry" />
        </mxCell>
        <mxCell id="zmf_kZrxa9GDJHeQNLPr-56" style="edgeStyle=orthogonalEdgeStyle;rounded=0;orthogonalLoop=1;jettySize=auto;html=1;exitX=1;exitY=0.5;exitDx=0;exitDy=0;" parent="1" source="zmf_kZrxa9GDJHeQNLPr-50" target="zmf_kZrxa9GDJHeQNLPr-55" edge="1">
          <mxGeometry relative="1" as="geometry" />
        </mxCell>
        <mxCell id="zmf_kZrxa9GDJHeQNLPr-50" value="1. User&lt;div&gt;2. Admin&lt;/div&gt;" style="rhombus;whiteSpace=wrap;html=1;" parent="1" vertex="1">
          <mxGeometry x="335" y="772" width="90" height="90" as="geometry" />
        </mxCell>
        <mxCell id="zmf_kZrxa9GDJHeQNLPr-65" style="edgeStyle=orthogonalEdgeStyle;rounded=0;orthogonalLoop=1;jettySize=auto;html=1;exitX=0.5;exitY=1;exitDx=0;exitDy=0;entryX=0.5;entryY=0;entryDx=0;entryDy=0;" parent="1" source="zmf_kZrxa9GDJHeQNLPr-53" target="zmf_kZrxa9GDJHeQNLPr-63" edge="1">
          <mxGeometry relative="1" as="geometry" />
        </mxCell>
        <mxCell id="zmf_kZrxa9GDJHeQNLPr-53" value="1. Masukkan Username&lt;div&gt;2. Masukkan Password&lt;/div&gt;" style="shape=parallelogram;perimeter=parallelogramPerimeter;whiteSpace=wrap;html=1;fixedSize=1;" parent="1" vertex="1">
          <mxGeometry x="150" y="860" width="170" height="60" as="geometry" />
        </mxCell>
        <mxCell id="zmf_kZrxa9GDJHeQNLPr-73" style="edgeStyle=orthogonalEdgeStyle;rounded=0;orthogonalLoop=1;jettySize=auto;html=1;exitX=0.5;exitY=1;exitDx=0;exitDy=0;entryX=0.5;entryY=0;entryDx=0;entryDy=0;" parent="1" source="zmf_kZrxa9GDJHeQNLPr-55" target="zmf_kZrxa9GDJHeQNLPr-72" edge="1">
          <mxGeometry relative="1" as="geometry" />
        </mxCell>
        <mxCell id="zmf_kZrxa9GDJHeQNLPr-55" value="1. Masukkan Username&lt;div&gt;2. Masukkan Password&lt;/div&gt;" style="shape=parallelogram;perimeter=parallelogramPerimeter;whiteSpace=wrap;html=1;fixedSize=1;" parent="1" vertex="1">
          <mxGeometry x="425" y="860" width="170" height="60" as="geometry" />
        </mxCell>
        <mxCell id="zmf_kZrxa9GDJHeQNLPr-57" value="User" style="text;html=1;align=center;verticalAlign=middle;resizable=0;points=[];autosize=1;strokeColor=none;fillColor=none;" parent="1" vertex="1">
          <mxGeometry x="250" y="789" width="50" height="30" as="geometry" />
        </mxCell>
        <mxCell id="zmf_kZrxa9GDJHeQNLPr-58" value="Admin" style="text;html=1;align=center;verticalAlign=middle;resizable=0;points=[];autosize=1;strokeColor=none;fillColor=none;" parent="1" vertex="1">
          <mxGeometry x="440" y="789" width="60" height="30" as="geometry" />
        </mxCell>
        <mxCell id="zmf_kZrxa9GDJHeQNLPr-87" style="edgeStyle=orthogonalEdgeStyle;rounded=0;orthogonalLoop=1;jettySize=auto;html=1;exitX=0.5;exitY=1;exitDx=0;exitDy=0;entryX=0.5;entryY=0;entryDx=0;entryDy=0;" parent="1" target="zmf_kZrxa9GDJHeQNLPr-81" edge="1">
          <mxGeometry relative="1" as="geometry">
            <mxPoint x="235" y="1120" as="sourcePoint" />
          </mxGeometry>
        </mxCell>
        <mxCell id="zmf_kZrxa9GDJHeQNLPr-67" style="edgeStyle=orthogonalEdgeStyle;rounded=0;orthogonalLoop=1;jettySize=auto;html=1;exitX=0.5;exitY=1;exitDx=0;exitDy=0;entryX=0.5;entryY=0;entryDx=0;entryDy=0;" parent="1" source="zmf_kZrxa9GDJHeQNLPr-63" edge="1">
          <mxGeometry relative="1" as="geometry">
            <mxPoint x="235" y="1060" as="targetPoint" />
          </mxGeometry>
        </mxCell>
        <mxCell id="zmf_kZrxa9GDJHeQNLPr-71" style="edgeStyle=orthogonalEdgeStyle;rounded=0;orthogonalLoop=1;jettySize=auto;html=1;exitX=0;exitY=0.5;exitDx=0;exitDy=0;entryX=0;entryY=0.75;entryDx=0;entryDy=0;" parent="1" source="zmf_kZrxa9GDJHeQNLPr-63" target="zmf_kZrxa9GDJHeQNLPr-3" edge="1">
          <mxGeometry relative="1" as="geometry">
            <Array as="points">
              <mxPoint x="110" y="990" />
              <mxPoint x="110" y="780" />
              <mxPoint x="250" y="780" />
              <mxPoint x="250" y="266" />
            </Array>
          </mxGeometry>
        </mxCell>
        <mxCell id="zmf_kZrxa9GDJHeQNLPr-63" value="Validasi" style="rhombus;whiteSpace=wrap;html=1;" parent="1" vertex="1">
          <mxGeometry x="193.75" y="960" width="82.5" height="60" as="geometry" />
        </mxCell>
        <mxCell id="zmf_kZrxa9GDJHeQNLPr-69" value="Yes" style="text;html=1;align=center;verticalAlign=middle;resizable=0;points=[];autosize=1;strokeColor=none;fillColor=none;" parent="1" vertex="1">
          <mxGeometry x="201" y="1018" width="40" height="30" as="geometry" />
        </mxCell>
        <mxCell id="zmf_kZrxa9GDJHeQNLPr-70" value="No" style="text;html=1;align=center;verticalAlign=middle;resizable=0;points=[];autosize=1;strokeColor=none;fillColor=none;" parent="1" vertex="1">
          <mxGeometry x="130" y="962" width="40" height="30" as="geometry" />
        </mxCell>
        <mxCell id="zmf_kZrxa9GDJHeQNLPr-76" style="edgeStyle=orthogonalEdgeStyle;rounded=0;orthogonalLoop=1;jettySize=auto;html=1;exitX=0.5;exitY=1;exitDx=0;exitDy=0;entryX=0.5;entryY=0;entryDx=0;entryDy=0;" parent="1" source="zmf_kZrxa9GDJHeQNLPr-72" edge="1">
          <mxGeometry relative="1" as="geometry">
            <mxPoint x="510" y="1060" as="targetPoint" />
          </mxGeometry>
        </mxCell>
        <mxCell id="zmf_kZrxa9GDJHeQNLPr-78" style="edgeStyle=orthogonalEdgeStyle;rounded=0;orthogonalLoop=1;jettySize=auto;html=1;exitX=1;exitY=0.5;exitDx=0;exitDy=0;entryX=1;entryY=0.75;entryDx=0;entryDy=0;" parent="1" source="zmf_kZrxa9GDJHeQNLPr-72" edge="1">
          <mxGeometry relative="1" as="geometry">
            <mxPoint x="605" y="991" as="sourcePoint" />
            <mxPoint x="462.5" y="266.75" as="targetPoint" />
            <Array as="points">
              <mxPoint x="630" y="991" />
              <mxPoint x="630" y="751" />
              <mxPoint x="510" y="751" />
              <mxPoint x="510" y="267" />
            </Array>
          </mxGeometry>
        </mxCell>
        <mxCell id="zmf_kZrxa9GDJHeQNLPr-72" value="Validasi" style="rhombus;whiteSpace=wrap;html=1;" parent="1" vertex="1">
          <mxGeometry x="470" y="960" width="80" height="60" as="geometry" />
        </mxCell>
        <mxCell id="zmf_kZrxa9GDJHeQNLPr-88" style="edgeStyle=orthogonalEdgeStyle;rounded=0;orthogonalLoop=1;jettySize=auto;html=1;exitX=0.5;exitY=1;exitDx=0;exitDy=0;" parent="1" target="zmf_kZrxa9GDJHeQNLPr-83" edge="1">
          <mxGeometry relative="1" as="geometry">
            <mxPoint x="510" y="1120" as="sourcePoint" />
          </mxGeometry>
        </mxCell>
        <mxCell id="zmf_kZrxa9GDJHeQNLPr-79" value="No" style="text;html=1;align=center;verticalAlign=middle;resizable=0;points=[];autosize=1;strokeColor=none;fillColor=none;" parent="1" vertex="1">
          <mxGeometry x="570" y="962" width="40" height="30" as="geometry" />
        </mxCell>
        <mxCell id="zmf_kZrxa9GDJHeQNLPr-80" value="Yes" style="text;html=1;align=center;verticalAlign=middle;resizable=0;points=[];autosize=1;strokeColor=none;fillColor=none;" parent="1" vertex="1">
          <mxGeometry x="505" y="1020" width="40" height="30" as="geometry" />
        </mxCell>
        <mxCell id="zmf_kZrxa9GDJHeQNLPr-89" style="edgeStyle=orthogonalEdgeStyle;rounded=0;orthogonalLoop=1;jettySize=auto;html=1;exitX=0;exitY=0.5;exitDx=0;exitDy=0;entryX=0;entryY=0.25;entryDx=0;entryDy=0;" parent="1" source="zmf_kZrxa9GDJHeQNLPr-81" target="zmf_kZrxa9GDJHeQNLPr-3" edge="1">
          <mxGeometry relative="1" as="geometry">
            <Array as="points">
              <mxPoint x="80" y="1200" />
              <mxPoint x="80" y="750" />
              <mxPoint x="210" y="750" />
              <mxPoint x="210" y="217" />
            </Array>
          </mxGeometry>
        </mxCell>
        <mxCell id="zmf_kZrxa9GDJHeQNLPr-119" value="&amp;nbsp;1. Sign Out&amp;nbsp;" style="edgeLabel;html=1;align=center;verticalAlign=middle;resizable=0;points=[];" parent="zmf_kZrxa9GDJHeQNLPr-89" vertex="1" connectable="0">
          <mxGeometry x="-0.948" y="2" relative="1" as="geometry">
            <mxPoint x="-22" y="-2" as="offset" />
          </mxGeometry>
        </mxCell>
        <mxCell id="zmf_kZrxa9GDJHeQNLPr-105" style="edgeStyle=orthogonalEdgeStyle;rounded=0;orthogonalLoop=1;jettySize=auto;html=1;exitX=1;exitY=0.5;exitDx=0;exitDy=0;entryX=0.5;entryY=0;entryDx=0;entryDy=0;" parent="1" source="zmf_kZrxa9GDJHeQNLPr-81" target="zmf_kZrxa9GDJHeQNLPr-102" edge="1">
          <mxGeometry relative="1" as="geometry" />
        </mxCell>
        <mxCell id="zmf_kZrxa9GDJHeQNLPr-117" value="&amp;nbsp;2. Produk Katalog&amp;nbsp;" style="edgeLabel;html=1;align=center;verticalAlign=middle;resizable=0;points=[];rotation=-90;" parent="zmf_kZrxa9GDJHeQNLPr-105" vertex="1" connectable="0">
          <mxGeometry x="-0.0172" y="-2" relative="1" as="geometry">
            <mxPoint x="2" y="15" as="offset" />
          </mxGeometry>
        </mxCell>
        <mxCell id="zmf_kZrxa9GDJHeQNLPr-106" style="edgeStyle=orthogonalEdgeStyle;rounded=0;orthogonalLoop=1;jettySize=auto;html=1;exitX=0.5;exitY=1;exitDx=0;exitDy=0;" parent="1" source="zmf_kZrxa9GDJHeQNLPr-81" target="zmf_kZrxa9GDJHeQNLPr-92" edge="1">
          <mxGeometry relative="1" as="geometry" />
        </mxCell>
        <mxCell id="zmf_kZrxa9GDJHeQNLPr-118" value="&amp;nbsp;3. Order Management&amp;nbsp;" style="edgeLabel;html=1;align=center;verticalAlign=middle;resizable=0;points=[];" parent="zmf_kZrxa9GDJHeQNLPr-106" vertex="1" connectable="0">
          <mxGeometry x="0.1986" relative="1" as="geometry">
            <mxPoint x="32" as="offset" />
          </mxGeometry>
        </mxCell>
        <mxCell id="zmf_kZrxa9GDJHeQNLPr-81" value="" style="rhombus;whiteSpace=wrap;html=1;rounded=0;" parent="1" vertex="1">
          <mxGeometry x="206.32" y="1178" width="57.37" height="45" as="geometry" />
        </mxCell>
        <mxCell id="zmf_kZrxa9GDJHeQNLPr-99" style="edgeStyle=orthogonalEdgeStyle;rounded=0;orthogonalLoop=1;jettySize=auto;html=1;exitX=1;exitY=0.5;exitDx=0;exitDy=0;entryX=1;entryY=0.25;entryDx=0;entryDy=0;" parent="1" source="zmf_kZrxa9GDJHeQNLPr-83" target="zmf_kZrxa9GDJHeQNLPr-3" edge="1">
          <mxGeometry relative="1" as="geometry">
            <Array as="points">
              <mxPoint x="680" y="1197" />
              <mxPoint x="680" y="680" />
              <mxPoint x="570" y="680" />
              <mxPoint x="570" y="217" />
            </Array>
          </mxGeometry>
        </mxCell>
        <mxCell id="zmf_kZrxa9GDJHeQNLPr-120" value="&amp;nbsp;1. Sign Out&amp;nbsp;" style="edgeLabel;html=1;align=center;verticalAlign=middle;resizable=0;points=[];" parent="zmf_kZrxa9GDJHeQNLPr-99" vertex="1" connectable="0">
          <mxGeometry x="-0.8731" y="2" relative="1" as="geometry">
            <mxPoint x="-20" y="2" as="offset" />
          </mxGeometry>
        </mxCell>
        <mxCell id="zmf_kZrxa9GDJHeQNLPr-111" style="edgeStyle=orthogonalEdgeStyle;rounded=0;orthogonalLoop=1;jettySize=auto;html=1;exitX=0.5;exitY=1;exitDx=0;exitDy=0;" parent="1" source="zmf_kZrxa9GDJHeQNLPr-83" target="zmf_kZrxa9GDJHeQNLPr-108" edge="1">
          <mxGeometry relative="1" as="geometry" />
        </mxCell>
        <mxCell id="zmf_kZrxa9GDJHeQNLPr-116" value="&amp;nbsp;3. Order Management&amp;nbsp;" style="edgeLabel;html=1;align=center;verticalAlign=middle;resizable=0;points=[];" parent="zmf_kZrxa9GDJHeQNLPr-111" vertex="1" connectable="0">
          <mxGeometry x="-0.1333" y="-1" relative="1" as="geometry">
            <mxPoint x="21" as="offset" />
          </mxGeometry>
        </mxCell>
        <mxCell id="zmf_kZrxa9GDJHeQNLPr-113" style="edgeStyle=orthogonalEdgeStyle;rounded=0;orthogonalLoop=1;jettySize=auto;html=1;exitX=0;exitY=0.5;exitDx=0;exitDy=0;" parent="1" source="zmf_kZrxa9GDJHeQNLPr-83" target="zmf_kZrxa9GDJHeQNLPr-94" edge="1">
          <mxGeometry relative="1" as="geometry" />
        </mxCell>
        <mxCell id="zmf_kZrxa9GDJHeQNLPr-115" value="&amp;nbsp;2. Produk Katalog&amp;nbsp;" style="edgeLabel;html=1;align=center;verticalAlign=middle;resizable=0;points=[];rotation=-90;" parent="zmf_kZrxa9GDJHeQNLPr-113" vertex="1" connectable="0">
          <mxGeometry x="0.7643" y="1" relative="1" as="geometry">
            <mxPoint x="-1" y="-64" as="offset" />
          </mxGeometry>
        </mxCell>
        <mxCell id="zmf_kZrxa9GDJHeQNLPr-83" value="" style="rhombus;whiteSpace=wrap;html=1;rounded=0;" parent="1" vertex="1">
          <mxGeometry x="485" y="1175" width="52.5" height="46" as="geometry" />
        </mxCell>
        <mxCell id="zmf_kZrxa9GDJHeQNLPr-91" value="1. Sign Out&lt;div&gt;2. Produk Katalog&lt;/div&gt;&lt;div&gt;3. Order Management&lt;/div&gt;" style="shape=parallelogram;perimeter=parallelogramPerimeter;whiteSpace=wrap;html=1;fixedSize=1;" parent="1" vertex="1">
          <mxGeometry x="150" y="1060" width="170" height="60" as="geometry" />
        </mxCell>
        <mxCell id="zmf_kZrxa9GDJHeQNLPr-92" value="1. Add Order&lt;div&gt;2.Show Order&lt;/div&gt;&lt;div&gt;3. Exit&lt;/div&gt;" style="shape=parallelogram;perimeter=parallelogramPerimeter;whiteSpace=wrap;html=1;fixedSize=1;" parent="1" vertex="1">
          <mxGeometry y="1360" width="160" height="60" as="geometry" />
        </mxCell>
        <mxCell id="ye_q-mggJqqSbo6vWUP1-1" style="edgeStyle=orthogonalEdgeStyle;rounded=0;orthogonalLoop=1;jettySize=auto;html=1;exitX=1;exitY=0.5;exitDx=0;exitDy=0;entryX=0.5;entryY=1;entryDx=0;entryDy=0;" edge="1" parent="1" source="zmf_kZrxa9GDJHeQNLPr-94" target="zmf_kZrxa9GDJHeQNLPr-129">
          <mxGeometry relative="1" as="geometry">
            <mxPoint x="837.5" y="420" as="targetPoint" />
            <mxPoint x="537.5" y="1472.0000000000002" as="sourcePoint" />
            <Array as="points">
              <mxPoint x="537" y="1492" />
              <mxPoint x="537" y="1500" />
              <mxPoint x="860" y="1500" />
            </Array>
          </mxGeometry>
        </mxCell>
        <mxCell id="ye_q-mggJqqSbo6vWUP1-3" value="1. Add Produk&amp;nbsp;" style="edgeLabel;html=1;align=center;verticalAlign=middle;resizable=0;points=[];" vertex="1" connectable="0" parent="ye_q-mggJqqSbo6vWUP1-1">
          <mxGeometry x="-0.7863" y="-2" relative="1" as="geometry">
            <mxPoint as="offset" />
          </mxGeometry>
        </mxCell>
        <mxCell id="zmf_kZrxa9GDJHeQNLPr-94" value="1. Add Produk&lt;div&gt;2. show Produk&lt;/div&gt;&lt;div&gt;3. Update Produk&lt;/div&gt;&lt;div&gt;4. Delete Produk&lt;/div&gt;&lt;div&gt;5.Exit&lt;/div&gt;" style="shape=parallelogram;perimeter=parallelogramPerimeter;whiteSpace=wrap;html=1;fixedSize=1;" parent="1" vertex="1">
          <mxGeometry x="365" y="1448" width="185" height="84" as="geometry" />
        </mxCell>
        <mxCell id="zmf_kZrxa9GDJHeQNLPr-97" value="1. Sign Out&lt;div&gt;2. Produk Katalog&lt;/div&gt;&lt;div&gt;3. Order Management&lt;/div&gt;" style="shape=parallelogram;perimeter=parallelogramPerimeter;whiteSpace=wrap;html=1;fixedSize=1;" parent="1" vertex="1">
          <mxGeometry x="425" y="1060" width="170" height="60" as="geometry" />
        </mxCell>
        <mxCell id="zmf_kZrxa9GDJHeQNLPr-102" value="1. Show Produk&lt;div&gt;2. Exit&lt;/div&gt;" style="shape=parallelogram;perimeter=parallelogramPerimeter;whiteSpace=wrap;html=1;fixedSize=1;" parent="1" vertex="1">
          <mxGeometry x="220" y="1460" width="130" height="60" as="geometry" />
        </mxCell>
        <mxCell id="zmf_kZrxa9GDJHeQNLPr-108" value="1. Show Transaksi User&lt;div&gt;2. Exit&lt;/div&gt;" style="shape=parallelogram;perimeter=parallelogramPerimeter;whiteSpace=wrap;html=1;fixedSize=1;" parent="1" vertex="1">
          <mxGeometry x="580" y="1350" width="170" height="60" as="geometry" />
        </mxCell>
        <mxCell id="zmf_kZrxa9GDJHeQNLPr-129" value="1.View Produk yang di tambahkan oleh Admin&lt;div&gt;2. Exit&lt;/div&gt;" style="rounded=0;whiteSpace=wrap;html=1;" parent="1" vertex="1">
          <mxGeometry x="760" y="307" width="200" height="66" as="geometry" />
        </mxCell>
      </root>
    </mxGraphModel>
  </diagram>
</mxfile>
